<?xml version="1.0" standalone="no"?>
<!DOCTYPE svg PUBLIC "-//W3C//DTD SVG 20010904//EN" "http://www.w3.org/TR/2001/REC-SVG-20010904/DTD/svg10.dtd">
<svg version="1.0" xmlns="http://www.w3.org/2000/svg"
     width="1560.000000pt" height="1560.000000pt" viewBox="0 0 1560.000000 1560.000000"
     preserveAspectRatio="xMidYMid meet">
    <metadata>
        Created by potrace 1.14, written by Peter Selinger 2001-2017
    </metadata>
    <g transform="translate(0.000000,1560.000000) scale(0.100000,-0.100000)"
       fill="#000000" stroke="none">
        <path d="M6129 11576 c-2 -3 -16 -7 -29 -10 -23 -5 -181 -49 -295 -82 -27 -8
-58 -17 -67 -19 -9 -2 -26 -9 -37 -15 -12 -6 -21 -9 -21 -6 0 4 -86 -23 -130
-41 -8 -3 -19 -7 -25 -8 -27 -7 -183 -64 -295 -108 -69 -27 -131 -49 -137 -49
-7 -1 -13 -6 -13 -11 0 -5 -6 -7 -14 -4 -8 3 -20 -1 -26 -9 -7 -8 -19 -14 -27
-14 -8 0 -38 -11 -66 -24 -29 -12 -81 -35 -117 -51 -36 -15 -75 -34 -87 -41
-12 -8 -27 -14 -32 -14 -5 0 -71 -30 -148 -67 -76 -37 -140 -67 -143 -68 -3 0
-16 -7 -30 -15 -14 -8 -27 -15 -30 -15 -3 -1 -25 -12 -50 -25 -25 -13 -48 -23
-52 -22 -5 1 -8 -2 -8 -7 0 -8 -37 -24 -52 -22 -5 1 -8 -3 -8 -7 0 -5 -19 -16
-42 -27 -24 -10 -45 -21 -48 -25 -3 -3 -30 -18 -60 -33 -30 -15 -62 -32 -70
-37 -43 -28 -214 -120 -221 -120 -5 0 -9 -4 -9 -10 0 -5 -5 -10 -12 -10 -6 0
-19 -6 -27 -14 -9 -7 -37 -25 -63 -39 -191 -105 -839 -538 -993 -663 -11 -9
-44 -32 -72 -51 -29 -20 -53 -40 -53 -44 0 -5 -5 -9 -11 -9 -6 0 -16 -6 -23
-12 -7 -7 -28 -24 -46 -38 -54 -40 -225 -174 -230 -180 -3 -3 -25 -21 -50 -40
-25 -19 -47 -37 -50 -40 -3 -3 -30 -25 -60 -50 -30 -24 -64 -52 -75 -62 -11
-9 -42 -36 -70 -59 -27 -23 -72 -61 -100 -85 -27 -23 -61 -52 -74 -63 -12 -11
-57 -51 -98 -88 -42 -37 -87 -77 -100 -88 -14 -11 -46 -40 -72 -65 -26 -25
-115 -109 -197 -187 -256 -241 -597 -593 -749 -771 -16 -19 -42 -47 -56 -61
-14 -14 -33 -38 -43 -53 l-18 -27 52 -63 c29 -35 71 -85 93 -112 23 -27 48
-58 55 -68 8 -10 23 -29 35 -41 12 -12 36 -40 54 -61 230 -275 660 -716 958
-981 43 -38 97 -87 118 -108 22 -21 46 -41 52 -45 7 -4 39 -31 73 -60 33 -30
70 -61 81 -70 12 -10 38 -32 59 -50 20 -18 71 -58 112 -90 41 -31 81 -64 90
-72 8 -8 55 -44 103 -80 48 -35 87 -68 87 -72 0 -4 4 -8 10 -8 5 0 61 -37 122
-83 108 -79 152 -110 187 -132 9 -5 18 -13 21 -16 20 -25 587 -389 720 -462
30 -17 57 -33 60 -36 3 -3 23 -15 45 -27 57 -30 155 -84 190 -104 17 -10 68
-38 115 -63 47 -24 120 -63 163 -86 42 -22 77 -38 77 -35 0 3 13 -4 29 -15 16
-12 36 -21 45 -21 9 0 16 -4 16 -10 0 -5 4 -10 9 -10 5 0 60 -24 122 -54 164
-77 221 -103 339 -153 58 -24 119 -51 137 -59 17 -8 34 -14 37 -14 3 0 25 -9
49 -19 36 -16 70 -30 87 -36 3 -1 16 -6 30 -12 57 -24 351 -131 380 -138 3 -1
12 -4 20 -8 16 -6 121 -40 130 -42 3 -1 43 -13 90 -28 47 -15 88 -27 92 -27 4
-1 26 -7 49 -15 23 -9 51 -17 63 -20 12 -2 39 -9 61 -15 22 -6 51 -13 65 -16
14 -3 34 -8 45 -11 57 -19 107 -24 99 -11 -4 6 -6 30 -6 54 l2 43 -117 59
c-133 66 -121 59 -263 143 -124 73 -356 226 -424 280 -267 211 -315 252 -474
410 -145 144 -188 189 -286 309 -110 134 -104 127 -160 204 -28 39 -54 73 -58
74 -5 2 -8 8 -8 13 0 5 -15 30 -34 56 -55 79 -149 240 -217 373 -35 69 -64
127 -65 130 0 3 -11 28 -24 55 -40 89 -130 325 -124 325 3 0 -2 13 -11 30 -8
16 -15 33 -15 37 0 5 -7 33 -16 63 -9 30 -18 62 -20 70 -28 112 -44 179 -48
204 -2 17 -5 32 -6 34 -4 3 -6 13 -14 72 -5 30 -10 64 -13 75 -11 54 -14 72
-18 110 -2 22 -6 65 -10 95 -14 130 -17 186 -19 385 -3 147 0 212 8 217 7 5 7
8 0 8 -5 0 -9 12 -8 28 1 15 5 66 8 114 4 49 9 100 10 115 2 16 8 60 12 98 8
71 10 83 13 88 2 1 4 14 6 28 7 52 16 104 20 119 4 16 14 61 19 95 17 104 111
414 166 550 16 39 30 77 32 85 2 8 5 17 8 20 3 3 23 43 43 90 21 47 49 105 62
130 13 25 33 63 43 85 11 22 50 89 86 149 36 60 66 113 66 118 0 4 3 8 8 8 4
0 20 21 36 48 37 58 163 228 225 302 25 30 53 63 61 73 69 86 294 315 404 412
110 96 113 99 152 130 20 17 43 36 50 43 7 6 17 12 22 12 6 0 12 4 14 9 4 12
149 119 267 198 47 32 88 61 89 66 2 4 8 7 14 7 6 0 35 16 64 35 29 19 57 35
62 35 6 0 12 4 14 8 6 16 364 202 388 202 6 0 10 29 10 70 0 62 -6 81 -21 66z"/>
        <path d="M9535 11515 l0 -65 55 -27 c30 -15 57 -27 60 -28 11 -3 65 -30 70
-35 3 -3 30 -17 60 -32 65 -32 153 -81 160 -88 3 -3 28 -19 55 -35 54 -31 187
-116 195 -125 3 -3 12 -9 22 -15 23 -14 134 -92 155 -109 10 -8 47 -38 83 -66
211 -166 444 -382 590 -551 25 -28 50 -57 55 -63 6 -6 41 -49 78 -96 38 -47
75 -93 83 -103 8 -9 14 -21 14 -26 0 -5 4 -11 8 -13 5 -1 40 -48 78 -104 65
-94 81 -120 108 -169 6 -11 14 -22 17 -25 18 -16 229 -427 235 -460 0 -3 5
-16 11 -30 55 -129 138 -373 157 -465 2 -5 8 -28 14 -50 6 -22 14 -53 17 -70
3 -16 7 -34 9 -40 3 -11 15 -68 21 -100 2 -11 4 -20 5 -20 1 0 3 -11 5 -25 2
-14 10 -75 19 -135 9 -61 18 -135 20 -165 3 -30 5 -55 6 -55 6 0 12 -209 12
-375 0 -215 -4 -299 -16 -318 -4 -7 -2 -12 4 -12 6 0 9 -4 6 -9 -3 -5 -8 -30
-11 -57 -9 -93 -16 -149 -21 -176 -3 -15 -7 -41 -9 -59 -14 -111 -85 -406
-134 -554 -52 -159 -151 -407 -172 -430 -5 -5 -9 -17 -9 -26 0 -9 -7 -22 -15
-29 -9 -7 -13 -15 -11 -18 3 -2 -6 -21 -19 -41 -14 -19 -25 -39 -25 -44 0 -18
-202 -351 -238 -392 -5 -6 -17 -24 -28 -40 -10 -17 -21 -32 -24 -35 -3 -3 -17
-21 -30 -40 -13 -19 -27 -37 -30 -40 -3 -3 -19 -23 -36 -45 -16 -22 -38 -50
-49 -62 -11 -12 -31 -34 -44 -50 -121 -145 -336 -361 -465 -468 -26 -22 -55
-47 -64 -55 -8 -8 -30 -26 -47 -40 -32 -25 -52 -40 -154 -117 -31 -24 -60 -46
-66 -51 -48 -36 -117 -82 -124 -82 -5 0 -11 -4 -13 -8 -3 -8 -144 -102 -153
-102 -3 0 -29 -16 -59 -35 -30 -19 -60 -35 -66 -35 -5 0 -10 -3 -10 -7 0 -5
-69 -42 -154 -83 l-153 -75 -4 -48 c-2 -27 -2 -53 1 -57 5 -7 39 -7 48 0 2 3
1 2 57 15 47 10 54 12 58 14 1 2 11 4 23 6 115 22 767 238 919 304 11 5 40 17
65 27 25 9 64 26 87 36 23 10 44 18 47 18 3 0 29 11 58 24 29 13 98 43 153 66
55 24 104 47 110 52 5 4 17 8 27 8 10 0 18 5 18 10 0 6 6 10 14 10 7 0 69 27
137 61 68 33 140 68 159 77 19 9 36 20 38 25 2 4 8 7 13 7 12 0 52 20 169 82
166 89 236 128 360 200 90 52 96 56 175 104 27 16 57 33 65 37 8 4 60 36 115
72 55 36 107 69 115 72 8 4 20 11 25 16 6 4 39 27 75 51 127 83 285 190 296
201 6 5 22 17 34 25 23 16 118 84 135 97 6 4 55 42 110 82 139 104 249 192
253 202 2 5 8 9 13 9 8 0 35 21 73 55 6 6 34 28 61 50 28 22 52 43 55 46 3 3
37 32 75 64 39 33 75 64 82 70 23 20 157 140 182 163 211 189 556 536 756 758
39 43 81 90 95 105 14 15 41 47 60 70 19 24 46 55 60 69 14 14 38 43 53 63 16
21 36 45 46 55 9 9 34 40 56 67 22 28 42 52 45 55 3 3 16 19 28 37 l23 32 -25
28 c-13 15 -33 37 -43 49 -150 174 -278 310 -558 589 -232 232 -349 344 -490
471 -16 14 -50 45 -75 68 -25 22 -79 70 -120 106 -41 35 -82 71 -91 80 -8 8
-35 31 -59 50 -24 19 -48 40 -54 45 -10 10 -225 187 -251 208 -5 4 -21 17 -35
28 -14 12 -52 42 -85 67 -33 26 -65 51 -71 57 -7 5 -32 25 -55 43 -24 18 -82
62 -127 97 -46 36 -87 65 -90 65 -4 0 -21 14 -39 30 -18 17 -36 30 -40 30 -4
1 -24 14 -43 30 -19 17 -40 30 -47 30 -7 0 -13 4 -13 9 0 5 -15 18 -32 29 -18
11 -58 38 -88 59 -137 97 -251 173 -260 173 -5 0 -10 3 -10 8 0 4 -16 16 -35
26 -19 11 -35 23 -35 28 0 4 -5 8 -10 8 -6 0 -38 18 -71 40 -33 22 -65 40 -70
40 -5 0 -9 5 -9 10 0 6 -4 10 -9 10 -6 0 -30 14 -54 30 -25 17 -50 30 -56 30
-6 0 -11 5 -11 10 0 6 -4 10 -8 10 -5 0 -61 32 -125 70 -64 39 -121 70 -127
70 -5 0 -10 5 -10 10 0 6 -5 10 -11 10 -6 0 -24 9 -40 21 -16 11 -29 17 -29
13 0 -4 -8 -1 -17 7 -10 8 -38 25 -63 39 -80 42 -85 45 -90 50 -3 3 -99 52
-215 110 -115 58 -213 109 -216 113 -3 5 -9 8 -13 7 -4 -1 -26 7 -49 18 -141
66 -255 117 -327 147 -36 15 -76 32 -90 38 -14 6 -27 11 -30 12 -3 1 -18 7
-33 13 -16 7 -30 12 -33 12 -2 0 -23 8 -47 19 -43 19 -108 45 -117 47 -3 0
-17 6 -31 12 -15 6 -76 27 -135 47 -60 20 -116 40 -124 44 -12 7 -104 36 -142
47 -5 1 -10 3 -13 4 -3 1 -8 3 -12 4 -7 2 -86 26 -203 61 -25 8 -57 16 -72 19
-14 2 -36 9 -47 16 -12 6 -21 9 -21 6 0 -2 -24 2 -52 10 -29 7 -53 14 -53 14
0 0 0 -29 0 -65z"/>
        <path d="M7215 9214 c0 -1443 1 -1624 15 -1625 8 -1 246 -2 528 -2 448 -2 515
0 521 13 3 8 6 740 5 1625 l-1 1610 -534 2 -534 1 0 -1624z"/>
        <path d="M6579 10771 c-203 -82 -380 -176 -563 -299 -71 -48 -136 -91 -144
-97 -9 -5 -21 -14 -28 -20 -6 -5 -22 -19 -36 -30 -151 -125 -222 -190 -323
-295 -53 -55 -62 -64 -133 -149 -20 -23 -42 -48 -47 -55 -59 -66 -229 -318
-287 -424 -58 -106 -141 -277 -141 -289 0 -7 -3 -13 -7 -13 -7 0 -34 -81 -30
-89 1 -2 -2 -7 -7 -10 -7 -5 -54 -127 -68 -181 -3 -8 -16 -55 -31 -105 -14
-49 -32 -119 -40 -155 -8 -36 -16 -72 -19 -81 -2 -9 -6 -34 -9 -55 -3 -22 -8
-50 -11 -64 -4 -24 -14 -95 -21 -155 -30 -258 -19 -617 27 -868 6 -34 12 -73
14 -87 2 -14 4 -25 5 -25 1 0 4 -11 7 -25 2 -14 6 -29 7 -35 2 -5 6 -23 10
-40 32 -136 119 -393 178 -524 52 -118 153 -308 198 -376 15 -22 29 -48 33
-57 4 -10 11 -18 17 -18 6 0 8 -4 5 -10 -3 -5 -1 -10 4 -10 6 0 11 -5 11 -10
0 -6 5 -16 10 -23 6 -7 47 -61 92 -121 45 -60 96 -124 114 -142 17 -19 29 -34
26 -34 -7 0 263 -267 323 -318 75 -65 273 -212 285 -212 5 0 10 -3 10 -8 0 -4
20 -18 45 -32 25 -14 45 -28 45 -32 0 -5 5 -8 10 -8 6 0 27 -11 48 -24 57 -36
224 -122 305 -157 40 -17 90 -40 113 -50 48 -21 328 -116 364 -123 25 -4 106
-23 145 -33 44 -11 189 -36 213 -36 6 0 12 -3 12 -6 0 -3 15 -6 33 -7 17 0 70
-4 117 -9 167 -16 529 -10 675 11 17 2 50 6 75 9 25 3 52 7 60 10 8 2 33 7 55
10 22 4 56 10 75 15 19 5 46 11 60 14 47 9 65 14 150 39 47 13 119 37 160 51
41 15 80 28 85 30 6 2 21 8 35 13 14 6 49 20 78 32 29 12 72 31 95 43 23 12
44 22 47 23 8 1 146 73 201 105 27 17 54 30 59 30 4 0 10 3 12 8 2 4 41 32 88
62 47 30 90 58 95 63 6 4 28 21 50 38 69 52 108 83 140 110 16 14 41 34 54 45
29 23 256 250 291 290 14 16 43 51 65 79 22 27 48 59 58 70 10 11 32 41 49 68
17 26 35 47 40 47 4 0 7 3 6 8 -2 4 9 23 23 42 14 19 44 64 65 100 21 36 42
67 47 68 4 2 7 9 7 16 0 6 11 28 25 48 14 20 25 44 25 52 0 8 4 16 9 18 11 4
88 168 136 288 20 52 41 104 46 115 7 18 42 132 44 145 0 3 3 10 6 15 4 6 14
41 24 79 24 97 25 104 60 276 3 14 7 43 10 65 2 22 7 60 11 85 10 67 20 206
26 345 0 20 -14 311 -17 355 -5 56 -14 127 -21 160 -5 27 -11 63 -18 108 -2
15 -9 50 -16 77 -6 28 -13 57 -15 65 -11 50 -20 84 -42 155 -14 44 -26 87 -29
95 -35 139 -174 443 -286 627 -37 61 -68 116 -68 122 0 6 -4 11 -8 11 -5 0
-24 24 -42 53 -19 28 -37 54 -40 57 -3 3 -17 21 -30 40 -13 19 -27 37 -30 40
-3 3 -34 40 -69 83 -70 86 -252 272 -346 354 -254 220 -546 401 -852 529 -18
8 -49 21 -68 30 -20 8 -48 16 -62 17 -22 2 -26 -2 -27 -31 0 -17 2 -32 6 -32
4 0 3 -11 -2 -25 -5 -14 -6 -25 -2 -25 9 0 7 -64 -2 -79 -4 -5 -2 -13 4 -16 7
-4 8 -11 2 -18 -5 -7 -6 -21 -2 -32 4 -11 4 -30 -1 -42 -5 -15 -5 -23 2 -23 6
0 6 -7 -1 -19 -7 -14 -7 -22 0 -26 7 -4 7 -11 2 -18 -5 -7 -6 -21 -2 -32 4
-11 4 -29 0 -40 -10 -26 -10 -35 1 -62 5 -14 5 -23 -1 -23 -5 0 -5 -12 0 -30
5 -16 6 -30 2 -30 -8 0 -7 -68 1 -76 3 -3 2 -17 -3 -30 -6 -16 -6 -24 1 -24 6
0 6 -6 0 -18 -6 -11 -6 -24 0 -35 6 -11 6 -23 0 -35 -7 -13 -7 -22 0 -29 8 -8
8 -13 0 -17 -7 -4 -7 -15 -1 -30 5 -13 7 -26 4 -29 -8 -8 -10 -88 -2 -93 4 -3
3 -16 -2 -29 -6 -17 -6 -25 1 -25 6 0 7 -6 1 -16 -17 -30 -1 -52 66 -96 62
-40 165 -115 206 -148 31 -26 240 -233 271 -270 17 -20 48 -60 70 -90 22 -30
43 -59 48 -65 24 -30 105 -169 150 -260 57 -114 98 -219 136 -350 20 -69 23
-80 39 -160 7 -35 10 -47 13 -57 0 -2 2 -21 5 -43 2 -22 6 -60 9 -85 4 -25 7
-115 9 -201 3 -142 -1 -212 -20 -339 -4 -25 -7 -52 -8 -60 -1 -9 -5 -21 -10
-28 -4 -6 -5 -12 -3 -12 2 0 -2 -26 -10 -57 -8 -32 -19 -76 -24 -98 -5 -22
-12 -47 -16 -55 -3 -8 -7 -22 -9 -30 -2 -8 -7 -23 -12 -35 -5 -11 -20 -47 -32
-80 -42 -111 -175 -357 -232 -430 -11 -14 -65 -83 -96 -125 -55 -72 -251 -258
-347 -331 -108 -81 -228 -156 -340 -212 -84 -41 -246 -107 -282 -113 -14 -3
-33 -9 -42 -13 -20 -11 -183 -49 -237 -56 -21 -3 -50 -7 -64 -10 -107 -23
-522 -25 -536 -4 -2 5 -10 6 -17 4 -7 -3 -48 2 -92 10 -44 9 -89 17 -100 19
-11 2 -20 4 -20 5 0 2 -9 4 -20 6 -27 5 -107 26 -125 32 -8 4 -22 7 -30 9 -25
5 -201 79 -270 114 -139 69 -156 78 -169 94 -7 9 -18 16 -23 16 -9 0 -98 58
-108 70 -3 3 -25 20 -50 37 -25 17 -59 44 -76 60 -17 15 -48 44 -70 64 -43 40
-155 157 -194 205 -52 62 -90 113 -90 119 0 3 -9 15 -20 27 -11 12 -20 28 -20
35 0 7 -4 13 -9 13 -5 0 -14 14 -21 30 -7 16 -16 30 -21 30 -5 0 -9 6 -9 13 0
6 -10 28 -22 47 -12 19 -23 37 -23 40 -1 3 -23 49 -48 103 -26 54 -47 105 -47
112 0 8 -4 16 -9 19 -5 3 -11 16 -14 28 -3 13 -19 70 -36 128 -30 101 -53 208
-68 315 -9 68 -10 448 0 510 4 28 10 68 13 90 6 38 12 67 18 90 6 23 27 125
28 132 0 5 4 14 10 21 6 6 8 12 5 12 -3 0 4 24 14 53 11 28 22 59 24 67 2 8
11 33 21 55 10 22 18 43 18 46 2 13 111 225 123 237 7 7 13 17 13 21 0 8 77
127 99 153 6 7 32 40 59 74 70 89 141 164 254 266 47 43 178 142 208 158 14 7
28 17 31 22 3 5 21 17 40 27 l34 18 0 577 c0 388 -3 576 -10 576 -5 0 -53 -18
-106 -39z"/>
    </g>
</svg>
