<?xml version="1.0" standalone="no"?>
<!DOCTYPE svg PUBLIC "-//W3C//DTD SVG 20010904//EN"
        "http://www.w3.org/TR/2001/REC-SVG-20010904/DTD/svg10.dtd">
<svg version="1.0" xmlns="http://www.w3.org/2000/svg"
     width="1902.000000pt" height="906.000000pt" viewBox="0 0 1902.000000 906.000000"
     preserveAspectRatio="xMidYMid meet">
    <metadata>
        Created by potrace 1.16, written by Peter Selinger 2001-2019
    </metadata>
    <g transform="translate(0.000000,906.000000) scale(0.100000,-0.100000)"
       fill="#000000" stroke="none">
        <path d="M0 8765 l0 -295 9510 0 9510 0 0 295 0 295 -9510 0 -9510 0 0 -295z
m18707 83 c29 -27 36 -63 19 -97 -34 -64 -122 -62 -153 5 -21 43 -4 86 40 108
36 17 62 13 94 -16z m-17037 8 c0 -10 14 -16 43 -18 l42 -3 3 -62 3 -63 -91 0
-90 0 0 80 0 80 45 0 c33 0 45 -4 45 -14z"/>
        <path d="M192 8218 c-16 -16 -16 -120 0 -136 7 -7 42 -12 88 -12 46 0 81 5 88
12 16 16 16 100 0 116 -7 7 -31 12 -54 12 -24 0 -46 5 -49 10 -9 14 -58 13
-73 -2z"/>
        <path d="M10831 7897 c-71 -25 -98 -115 -54 -175 36 -49 71 -53 395 -50 283 3
298 4 325 24 15 11 34 39 41 61 11 35 11 46 -2 76 -29 71 -34 72 -371 74 -216
2 -310 -1 -334 -10z"/>
        <path d="M230 7713 c-39 -8 -50 -22 -50 -67 0 -47 13 -66 47 -66 16 0 23 6 23
20 0 16 7 20 30 20 23 0 30 -4 30 -20 0 -14 7 -20 23 -20 34 0 47 19 47 67 0
32 -5 45 -20 53 -24 13 -96 20 -130 13z"/>
        <path d="M180 6760 c0 -39 1 -40 35 -40 24 0 35 5 35 15 0 8 5 15 10 15 6 0
10 -22 10 -50 0 -43 3 -50 20 -50 11 0 20 -7 20 -15 0 -10 11 -15 35 -15 34 0
35 1 35 40 0 39 -1 40 -35 40 -24 0 -35 -5 -35 -15 0 -8 -4 -15 -10 -15 -5 0
-10 18 -10 40 0 22 5 40 10 40 6 0 10 -7 10 -15 0 -10 11 -15 35 -15 34 0 35
1 35 40 0 39 -1 40 -35 40 -24 0 -35 -5 -35 -15 0 -10 -10 -15 -30 -15 -20 0
-30 5 -30 15 0 10 -11 15 -35 15 -34 0 -35 -1 -35 -40z"/>
        <path d="M230 6305 c-21 -25 -16 -68 14 -119 15 -25 30 -46 34 -46 11 0 52 64
61 97 14 48 -6 77 -55 81 -28 2 -45 -2 -54 -13z"/>
        <path d="M182 5798 c-16 -16 -16 -120 0 -136 7 -7 44 -12 98 -12 54 0 91 5 98
12 7 7 12 37 12 68 0 31 -5 61 -12 68 -7 7 -44 12 -98 12 -54 0 -91 -5 -98
-12z m188 -68 l0 -60 -90 0 -90 0 0 60 0 60 90 0 90 0 0 -60z"/>
        <path d="M14540 5048 c-47 -32 -67 -86 -53 -141 9 -32 9 -44 0 -49 -9 -6 -9
-8 1 -8 15 0 16 -27 1 -32 -7 -2 -6 -8 4 -16 12 -10 15 -10 14 0 -1 33 4 49
14 43 6 -4 8 -14 5 -22 -7 -17 10 -43 27 -43 6 0 2 7 -9 16 -13 10 -14 14 -4
12 8 -2 26 -27 40 -56 26 -54 47 -65 71 -36 10 12 10 20 2 34 -9 13 -8 23 4
40 12 17 17 19 24 9 6 -10 9 -8 9 9 0 13 9 35 20 50 29 39 35 91 17 134 -30
71 -123 99 -187 56z"/>
        <path d="M182 4868 c-16 -16 -16 -120 0 -136 7 -7 22 -12 35 -12 13 0 23 -4
23 -10 0 -5 18 -10 40 -10 22 0 40 5 40 10 0 6 10 10 23 10 36 0 47 19 47 80
0 31 -5 61 -12 68 -16 16 -180 16 -196 0z m188 -68 l0 -60 -90 0 -90 0 0 60 0
60 90 0 90 0 0 -60z"/>
        <path d="M17571 4310 c-1 -8 -19 -22 -41 -32 -46 -19 -80 -68 -80 -116 0 -40
10 -61 61 -128 21 -28 44 -65 50 -82 6 -18 15 -32 19 -32 4 0 13 14 19 32 6
17 29 54 50 82 21 28 44 61 50 73 15 30 13 94 -4 117 -8 11 -15 34 -16 50 -1
30 -1 30 -9 6 l-7 -25 -11 25 c-6 14 -11 18 -12 10 0 -10 -6 -7 -20 10 -10 14
-22 21 -26 17 -4 -4 -2 -7 4 -7 7 0 12 -4 12 -10 0 -17 -28 -11 -33 8 -3 12
-5 13 -6 2z"/>
        <path d="M17524 3274 c3 -9 9 -27 12 -40 l6 -24 -772 0 c-543 0 -777 3 -792
11 -15 8 -26 8 -42 0 -13 -6 -111 -12 -253 -13 -220 -3 -234 -4 -253 -24 -11
-11 -23 -37 -27 -57 l-6 -37 252 0 c155 0 251 -4 251 -10 0 -5 -6 -8 -12 -6
-7 1 -10 1 -5 -1 4 -3 5 -8 3 -12 -3 -4 6 -7 20 -7 14 0 24 6 24 14 0 7 -4 10
-10 7 -5 -3 -10 -1 -10 4 0 7 32 11 85 11 69 0 83 -3 79 -14 -3 -8 -13 -12
-22 -9 -15 4 -15 3 -2 -6 23 -17 40 -13 40 9 0 20 7 20 495 20 450 0 495 -1
495 -16 0 -14 -3 -14 -15 -4 -13 11 -14 10 -9 -3 7 -18 71 -19 71 0 0 6 -9 10
-19 8 -10 -2 -18 0 -18 6 0 5 283 9 740 9 540 0 739 -3 737 -11 -3 -15 31 -20
40 -7 3 6 1 8 -5 4 -6 -3 -13 -2 -17 4 -4 7 38 10 124 10 100 0 131 -3 131
-13 0 -7 9 -13 21 -13 19 0 19 1 3 13 -15 11 -4 13 70 13 l87 0 -3 47 c-4 70
-14 73 -256 73 l-202 0 17 28 17 27 -27 -27 -26 -28 -496 0 c-339 0 -494 3
-490 10 14 22 23 70 14 70 -5 0 -9 -7 -9 -15 0 -8 -4 -15 -10 -15 -5 0 -10 7
-10 15 0 8 -5 15 -11 15 -6 0 -8 -7 -5 -16z"/>
        <path d="M16633 1683 c438 -2 1156 -2 1595 0 438 1 79 2 -798 2 -877 0 -1236
-1 -797 -2z"/>
        <path d="M15410 895 l0 -515 -6585 0 -6585 0 2 -192 3 -193 2 187 3 188 820 0
820 0 3 -188 2 -187 3 188 2 187 1530 0 1530 0 3 -187 2 -188 3 188 2 187 770
0 770 0 3 -187 2 -188 3 188 2 187 3445 0 3445 0 0 -90 c0 -83 2 -93 25 -115
l24 -25 1250 0 1250 0 4 -72 3 -73 2 73 2 72 445 0 444 0 4 -72 3 -73 2 73 2
72 53 0 c31 0 61 6 75 16 l22 15 0 620 0 619 -1805 0 -1805 0 0 -515z"/>
    </g>
</svg>
