<?xml version="1.0" encoding="UTF-8"?>
<svg version="1.1" viewBox="0 0 1902 906" width="1902" height="906" xmlns="http://www.w3.org/2000/svg">
    <path transform="translate(0)" d="m0 0h1902v906h-1902z" fill="#F5F6F7"/>
    <path transform="translate(890,394)" d="m0 0h124l3 3v30l-3 3h-124l-3-3v-30z" fill="#253C5D"/>
    <path transform="translate(1746,8)" d="m0 0h74l3 3v30l-3 3h-74l-3-3v-30z" fill="#283E5F"/>
    <path transform="translate(1121,254)"
          d="m0 0h7l8 3 7 6 3 7v12l-4 8-3 4 8 9v1h-13l-4-5v-2h-12l-6-3-5-5-4-8v-10l4-9 6-5z"/>
    <path transform="translate(1854,6)" d="m0 0h10l8 4 5 6 2 5v10l-4 8-6 5-5 2h-10l-8-4-5-6-2-5v-10l4-8 6-5z"
          fill="#020407"/>
    <path transform="translate(1218,263)" d="m0 0h7l5 3 1 1 1-3h10v33h-10l-1-3-4 3h-11l-7-6-2-5v-12l4-7 4-3z"/>
    <path transform="translate(969,255)" d="m0 0h10v16h16v-16h10v42h-10v-17h-16v17h-10z"/>
    <path transform="translate(1021,263)" d="m0 0h8l7 3 5 6 1 2v12l-4 7-7 4h-12l-7-4-4-7v-11l3-6 5-4z"/>
    <path transform="translate(833,263)" d="m0 0h8l7 3 5 6 1 2v12l-4 7-7 4h-12l-7-4-4-7v-11l3-6 5-4z"/>
    <path transform="translate(888,253)" d="m0 0h10l1 13 6-3h7l6 4 3 6v24h-10l-1-21-2-3h-7l-2 3-1 21h-10z"/>
    <path transform="translate(935,263)" d="m0 0h9l8 4 4 7v9h-23l3 5h8v-2h11l-1 4-4 5-4 2h-13l-6-4-4-7v-12l4-6 5-4z"/>
    <path transform="translate(730,263)" d="m0 0h9l8 4 4 7v9h-23l3 5h8v-2h11l-1 4-4 5-4 2h-13l-6-4-4-7v-12l4-6 5-4z"/>
    <path transform="translate(1056,264)" d="m0 0h12l6 16v3h2l3-10 3-9h12l-20 48-1 1h-11l5-13 1-7-12-28z"/>
    <path transform="translate(1148,264)" d="m0 0h11l1 22 3 2 6-1 2-5 1-18h10v33h-10l-1-3-5 3h-10l-6-5-2-7z"/>
    <path transform="translate(1264,263)" d="m0 0 9 1 5 4 2 5v24h-10l-1-21-2-3h-7l-2 3-1 21h-10v-33h10l1 2z"/>
    <path transform="translate(771,263)" d="m0 0 9 1 5 4 2 5v24h-10l-1-21-2-3h-7l-2 3-1 21h-10v-33h10l1 2z"/>
    <path transform="translate(677,263)"
          d="m0 0h9l6 3 3 4 1 4h-10v-2l-8-1 1 4 13 4 4 5v6l-5 6-2 1h-13l-6-4-3-4v-3h10l1 3h7v-3l-12-4-5-5v-7l4-5z"/>
    <path transform="translate(868,255)" d="m0 0h11v9h6v8h-6v16h6v9h-9l-5-3-2-2-1-4v-16h-4v-8h4z"/>
    <path transform="translate(802,255)" d="m0 0h11v9h6v8h-6v16h6v9h-9l-5-3-2-2-1-4v-16h-4v-8h4z"/>
    <path transform="translate(700,255)" d="m0 0h11v9h6v8h-6v16h6v9h-9l-5-3-2-2-1-4v-16h-4v-8h4z"/>
    <path transform="translate(628,255)" d="m0 0h10v34h13v8h-23z"/>
    <path transform="translate(1120,264)" d="m0 0h9l5 4 2 5-1 9-4 5-3 1h-7l-5-3-2-3-1-7 2-7z" fill="#F6F7F8"/>
    <path transform="translate(1045,253)" d="m0 0h10v44h-10z"/>
    <path transform="translate(1204,263)" d="m0 0h2v11l-8 2-1 2-1 19h-10v-33h10l1 3 4-3z"/>
    <path transform="translate(654,264)" d="m0 0h10v33h-10z"/>
    <path transform="translate(1222,272)" d="m0 0 7 1 3 5-1 7-3 3-4 1-5-2-2-4v-6z" fill="#F6F7F8"/>
    <path transform="translate(1022,272)" d="m0 0h6l4 5v7l-3 4-5 1-5-3-1-9z" fill="#F6F7F8"/>
    <path transform="translate(834,272)" d="m0 0h6l4 5v7l-3 4-5 1-5-3-1-9z" fill="#F6F7F8"/>
    <path transform="translate(1660,849)" d="m0 0 6 2 10 7-1 3-13 8h-2z" fill="#0C1522"/>
    <path transform="translate(1284,849)" d="m0 0 6 2 10 7-1 3-13 8h-2z" fill="#0C1522"/>
    <path transform="translate(908,849)" d="m0 0 6 2 10 7-1 3-13 8h-2z" fill="#0C1522"/>
    <path transform="translate(532,849)" d="m0 0 6 2 10 7-1 3-13 8h-2z" fill="#0C1522"/>
    <path transform="translate(1660,771)" d="m0 0 6 2 10 7-1 3-13 8h-2z" fill="#0C1522"/>
    <path transform="translate(1284,771)" d="m0 0 6 2 10 7-1 3-13 8h-2z" fill="#0C1522"/>
    <path transform="translate(908,771)" d="m0 0 6 2 10 7-1 3-13 8h-2z" fill="#0C1522"/>
    <path transform="translate(532,771)" d="m0 0 6 2 10 7-1 3-13 8h-2z" fill="#0C1522"/>
    <path transform="translate(117,22)" d="m0 0h9v16h-3l-1-5h-5l-2-2v-7z" fill="#282828"/>
    <path transform="translate(1851,15)"
          d="m0 0 10 1 6-1 1 9-2 4-2 1-1 8-2-1-1-8 5-1v-9h-11l-1 2v6l5 2-1 9-2-1v-3l-5-1-2-3 6 2v-2l-4-4z"
          fill="#F6F7F8"/>
    <path transform="translate(254,852)" d="m0 0 4 1 3 7 4-8h3v13h-3l-1-4-2 4h-2l-2-4-1 4h-3z"/>
    <path transform="translate(816,328)" d="m0 0h2v15h-9l-2-3 1-7 7-1z" fill="#21385A"/>
    <path transform="translate(728,328)" d="m0 0h2v15h-9l-2-3 1-7 7-1z" fill="#21385A"/>
    <path transform="translate(709,328)" d="m0 0h2v15h-9l-2-3 1-7 7-1z" fill="#21385A"/>
    <path transform="translate(630,774)" d="m0 0 9 1 1 3-1 3 1 4-2 2h-8z" fill="#373737"/>
    <path transform="translate(153,22)" d="m0 0h9v11h-9l-2-2v-7z" fill="#2D2D2E"/>
    <path transform="translate(1225,332)" d="m0 0h8v11h-9l-2-3 1-7z" fill="#21385A"/>
    <path transform="translate(950,332)" d="m0 0h8v11h-9l-2-3 1-7z" fill="#21385A"/>
    <path transform="translate(796,332)" d="m0 0h8v11h-9l-2-3 1-7z" fill="#21385A"/>
    <path transform="translate(676,332)" d="m0 0h8v11h-9l-2-3 1-7z" fill="#21385A"/>
    <path transform="translate(656,777)" d="m0 0h8v15h-3l-1-5-5-1-1-1v-6z" fill="#363637"/>
    <path transform="translate(656,249)" d="m0 0h6l3 3v5l-3 3h-6l-3-3v-5z"/>
    <path transform="translate(81,22)" d="m0 0h7l2 3-1 7-2 1h-6l-2-2v-7z" fill="#303031"/>
    <path transform="translate(671,855)" d="m0 0h15l2 3v7h-3l-1-7h-2l-1 7h-3l-1-7h-2l-1 7h-3z"/>
    <path transform="translate(1011,777)" d="m0 0h15l2 3v7h-3l-1-7h-2l-1 7h-3l-1-7h-2l-1 7h-3z"/>
    <path transform="translate(66,18)" d="m0 0h4l1 4h5l1 1v10h-3v-8h-4v8h-4z"/>
    <path transform="translate(37,18)" d="m0 0h4l1 4h5l1 1v10h-3v-8h-4v8h-4z"/>
    <path transform="translate(298,852)" d="m0 0h3v13h-8l-2-2v-6l2-2h4z" fill="#3A3A3A"/>
    <path transform="translate(1260,332)" d="m0 0h5l3 3v5l-3 3-7-1-1-7z" fill="#21385A"/>
    <path transform="translate(1183,332)" d="m0 0h5l3 3v5l-3 3-7-1-1-7z" fill="#21385A"/>
    <path transform="translate(1100,332)" d="m0 0h5l3 3v5l-3 3-7-1-1-7z" fill="#21385A"/>
    <path transform="translate(1053,332)" d="m0 0h5l3 3v5l-3 3-7-1-1-7z" fill="#21385A"/>
    <path transform="translate(880,332)" d="m0 0h5l3 3v5l-3 3-7-1-1-7z" fill="#21385A"/>
    <path transform="translate(783,332)" d="m0 0h5l3 3v5l-3 3-7-1-1-7z" fill="#21385A"/>
    <path transform="translate(736,332)" d="m0 0h5l3 3v5l-3 3-7-1-1-7z" fill="#21385A"/>
    <path transform="translate(1389,774)" d="m0 0h3l4 6 1-6h3v13l-4-1-3-5-1 6h-3z"/>
    <path transform="translate(1415,855)" d="m0 0h8v10h-8l-2-2v-6z" fill="#404040"/>
    <path transform="translate(1032,855)" d="m0 0h8v10h-8l-2-2v-6z" fill="#404040"/>
    <path transform="translate(661,855)" d="m0 0h8v10h-8l-2-2v-6z" fill="#404040"/>
    <path transform="translate(305,855)" d="m0 0h8v10h-8l-2-2v-6z" fill="#404040"/>
    <path transform="translate(272,855)" d="m0 0h8v10h-8l-2-2v-6z" fill="#404040"/>
    <path transform="translate(1419,777)" d="m0 0h8v10h-8l-2-2v-6z" fill="#404040"/>
    <path transform="translate(1039,777)" d="m0 0h8v10h-8l-2-2v-6z" fill="#404040"/>
    <path transform="translate(687,777)" d="m0 0h8v10h-8l-2-2v-6z" fill="#404040"/>
    <path transform="translate(668,777)" d="m0 0h8v10h-8l-2-2v-6z" fill="#404040"/>
    <path transform="translate(644,777)" d="m0 0h8v10h-8l-2-2v-6z" fill="#404040"/>
    <path transform="translate(302,777)" d="m0 0h8v10h-8l-2-2v-6z" fill="#404040"/>
    <path transform="translate(266,777)" d="m0 0h8v10h-8l-2-2v-6z" fill="#404040"/>
    <path transform="translate(52,22)" d="m0 0h6l3 3v3h-8v2l8-1-3 4h-6l-2-2v-7z" fill="#0D0D0D"/>
    <path transform="translate(917,330)" d="m0 0 5 2 1 1v6l-4 3-5-2-1-1v-6z" fill="#F6F7F8"/>
    <path transform="translate(97,22)" d="m0 0h4l3 4 2-4 4 1-7 15-4-1 1-7z"/>
    <path transform="translate(165,22)" d="m0 0h10l1 1v10h-3v-8h-4v8h-4z"/>
    <path transform="translate(129,22)" d="m0 0h4v8l3-1 1-7h3v11h-9l-2-3z"/>
    <path transform="translate(1386,852)" d="m0 0h3l4 10v3l-8-1-4 1z" fill="#202020"/>
    <path transform="translate(1358,852)" d="m0 0h3l4 10v3l-8-1-4 1z" fill="#202020"/>
    <path transform="translate(1010,852)" d="m0 0h3l4 10v3l-8-1-4 1z" fill="#202020"/>
    <path transform="translate(982,852)" d="m0 0h3l4 10v3l-8-1-4 1z" fill="#202020"/>
    <path transform="translate(634,852)" d="m0 0h3l4 10v3l-8-1-4 1z" fill="#202020"/>
    <path transform="translate(606,852)" d="m0 0h3l4 10v3l-8-1-4 1z" fill="#202020"/>
    <path transform="translate(230,852)" d="m0 0h3l4 10v3l-8-1-4 1z" fill="#202020"/>
    <path transform="translate(1358,774)" d="m0 0h3l4 10v3l-8-1-4 1z" fill="#202020"/>
    <path transform="translate(982,774)" d="m0 0h3l4 10v3l-8-1-4 1z" fill="#202020"/>
    <path transform="translate(606,774)" d="m0 0h3l4 10v3l-8-1-4 1z" fill="#202020"/>
    <path transform="translate(230,774)" d="m0 0h3l4 10v3l-8-1-4 1z" fill="#202020"/>
    <path transform="translate(24,19)" d="m0 0h11v3h-3v11h-4v-11h-4z"/>
    <path transform="translate(1662,852)" d="m0 0 10 6-1 3-9 5z" fill="#F6F7F8"/>
    <path transform="translate(1286,852)" d="m0 0 10 6-1 3-9 5z" fill="#F6F7F8"/>
    <path transform="translate(910,852)" d="m0 0 10 6-1 3-9 5z" fill="#F6F7F8"/>
    <path transform="translate(534,852)" d="m0 0 10 6-1 3-9 5z" fill="#F6F7F8"/>
    <path transform="translate(1662,774)" d="m0 0 10 6-1 3-9 5z" fill="#F6F7F8"/>
    <path transform="translate(1286,774)" d="m0 0 10 6-1 3-9 5z" fill="#F6F7F8"/>
    <path transform="translate(910,774)" d="m0 0 10 6-1 3-9 5z" fill="#F6F7F8"/>
    <path transform="translate(534,774)" d="m0 0 10 6-1 3-9 5z" fill="#F6F7F8"/>
    <path transform="translate(315,852)" d="m0 0h3l1 3 5 1 1 1v8h-3l-1-7h-2l-1 7h-3z"/>
    <path transform="translate(697,774)" d="m0 0h3l1 3 5 1 1 1v8h-3l-1-7h-2l-1 7h-3z"/>
    <path transform="translate(312,774)" d="m0 0h3l1 3 5 1 1 1v8h-3l-1-7h-2l-1 7h-3z"/>
    <path transform="translate(288,774)" d="m0 0h3l1 3 5 1 1 1v8h-3l-1-7h-2l-1 7h-3z"/>
    <path transform="translate(915,329)" d="m0 0h6l4 5-1 6v4l1 2-4-2-8-2-2-3v-6zm2 1-4 3v6l4 3 5-2 1-1v-6l-5-3z"
          fill="#21385A"/>
    <path transform="translate(963,360)" d="m0 0h5l3 4v2h-9l2 3 6-1-2 3-7-1-1-7z" fill="#818EA1"/>
    <path transform="translate(927,360)" d="m0 0h5l3 4v2h-9l2 3 6-1-2 3-7-1-1-7z" fill="#818EA1"/>
    <path transform="translate(1145,332)" d="m0 0h5l3 4v2h-9l2 3 6-1-2 3-7-1-1-7z" fill="#818EA1"/>
    <path transform="translate(1083,332)" d="m0 0h5l3 4v2h-9l2 3 6-1-2 3-7-1-1-7z" fill="#818EA1"/>
    <path transform="translate(1025,332)" d="m0 0h5l3 4v2h-9l2 3 6-1-2 3-7-1-1-7z" fill="#818EA1"/>
    <path transform="translate(849,332)" d="m0 0h5l3 4v2h-9l2 3 6-1-2 3-7-1-1-7z" fill="#818EA1"/>
    <path transform="translate(646,332)" d="m0 0h5l3 4v2h-9l2 3 6-1-2 3-7-1-1-7z" fill="#818EA1"/>
    <path transform="translate(1395,855)" d="m0 0h8l2 2v8h-3l-1-7h-2l-1 7h-3z"/>
    <path transform="translate(643,855)" d="m0 0h8l2 2v8h-3l-1-7h-2l-1 7h-3z"/>
    <path transform="translate(1367,777)" d="m0 0h8l2 2v8h-3l-1-7h-2l-1 7h-3z"/>
    <path transform="translate(1049,777)" d="m0 0h8l2 2v8h-3l-1-7h-2l-1 7h-3z"/>
    <path transform="translate(995,409)" d="m0 0h5v11l-5 1-2-1v-2h5l-4-1-1-1v-6z" fill="#B8C0CA"/>
    <path transform="translate(745,332)" d="m0 0h2l3 6 2-6 3 1 2 6 2-7h2l-3 11-3-1-2-5-2 6-3-1z" fill="#21385A"/>
    <path transform="translate(938,271)" d="m0 0 6 1 2 5h-13l2-5z" fill="#F6F7F8"/>
    <path transform="translate(733,271)" d="m0 0 6 1 2 5h-13l2-5z" fill="#F6F7F8"/>
    <path transform="translate(92,18)" d="m0 0h4v15h-4z"/>
    <path transform="translate(254,774)" d="m0 0h8v2h-5v4h4v2h-4v5h-3z"/>
    <path transform="translate(864,329)" d="m0 0h1v6h7v-6h2v14h-2v-6h-7v6h-1z" fill="#21385A"/>
    <path transform="translate(1408,777)" d="m0 0h5l2 3h-5l5 3-1 4h-6l-1-3 5 1v-2l-5-1z"/>
    <path transform="translate(1756,21)" d="m0 0h5l2 2-1 5 1 3-3-1-1-2-1 3h-2z" fill="#D2D7DD"/>
    <path transform="translate(142,22)" d="m0 0h7v3l-2 1-1 7h-4z"/>
    <path transform="translate(919,409)" d="m0 0h5v8h-6l-1-1v-6z" fill="#A6AFBD"/>
    <path transform="translate(1270,332)" d="m0 0h2l1 8 5 1v-9h2v11h-8l-2-4z" fill="#21385A"/>
    <path transform="translate(927,332)" d="m0 0h2l1 8 5 1v-9h2v11h-8l-2-4z" fill="#21385A"/>
    <path transform="translate(894,332)" d="m0 0 3 1 3 6 3-7 2 1-6 15-3-1 2-5z" fill="#21385A"/>
    <path transform="translate(1262,333)" d="m0 0 4 2v5l-4 2-3-2v-5z" fill="#F6F7F8"/>
    <path transform="translate(1227,333)" d="m0 0 4 2v5l-4 2-3-2v-5z" fill="#F6F7F8"/>
    <path transform="translate(1185,333)" d="m0 0 4 2v5l-4 2-3-2v-5z" fill="#F6F7F8"/>
    <path transform="translate(1102,333)" d="m0 0 4 2v5l-4 2-3-2v-5z" fill="#F6F7F8"/>
    <path transform="translate(1055,333)" d="m0 0 4 2v5l-4 2-3-2v-5z" fill="#F6F7F8"/>
    <path transform="translate(952,333)" d="m0 0 4 2v5l-4 2-3-2v-5z" fill="#F6F7F8"/>
    <path transform="translate(882,333)" d="m0 0 4 2v5l-4 2-3-2v-5z" fill="#F6F7F8"/>
    <path transform="translate(812,333)" d="m0 0 4 2v5l-4 2-3-2v-5z" fill="#F6F7F8"/>
    <path transform="translate(798,333)" d="m0 0 4 2v5l-4 2-3-2v-5z" fill="#F6F7F8"/>
    <path transform="translate(785,333)" d="m0 0 4 2v5l-4 2-3-2v-5z" fill="#F6F7F8"/>
    <path transform="translate(738,333)" d="m0 0 4 2v5l-4 2-3-2v-5z" fill="#F6F7F8"/>
    <path transform="translate(724,333)" d="m0 0 4 2v5l-4 2-3-2v-5z" fill="#F6F7F8"/>
    <path transform="translate(705,333)" d="m0 0 4 2v5l-4 2-3-2v-5z" fill="#F6F7F8"/>
    <path transform="translate(678,333)" d="m0 0 4 2v5l-4 2-3-2v-5z" fill="#F6F7F8"/>
    <path transform="translate(1660,849)" d="m0 0 4 1v2h-2l1 16-3 1z" fill="#020305"/>
    <path transform="translate(1284,849)" d="m0 0 4 1v2h-2l1 16-3 1z" fill="#020305"/>
    <path transform="translate(908,849)" d="m0 0 4 1v2h-2l1 16-3 1z" fill="#020305"/>
    <path transform="translate(532,849)" d="m0 0 4 1v2h-2l1 16-3 1z" fill="#020305"/>
    <path transform="translate(1660,771)" d="m0 0 4 1v2h-2l1 16-3 1z" fill="#020305"/>
    <path transform="translate(1284,771)" d="m0 0 4 1v2h-2l1 16-3 1z" fill="#020305"/>
    <path transform="translate(908,771)" d="m0 0 4 1v2h-2l1 16-3 1z" fill="#020305"/>
    <path transform="translate(532,771)" d="m0 0 4 1v2h-2l1 16-3 1z" fill="#020305"/>
    <path transform="translate(931,407)" d="m0 0h2v2h2v2h-2v5l2 1-4-1v-5h-3v6h-2v-8h5z" fill="#F6F7F8"/>
    <path transform="translate(939,360)" d="m0 0h5l2 4h-2v-2l-5 1v5l5 1v-2h2l-2 4h-6l-2-3 1-7z" fill="#21385A"/>
    <path transform="translate(1071,332)" d="m0 0h5l2 4h-2v-2l-5 1v5l5 1v-2h2l-2 4h-6l-2-3 1-7z" fill="#21385A"/>
    <path transform="translate(1692,23)" d="m0 0 5 1 1 4-6 1 4 3-5-1-1-1v-5z" fill="#444445"/>
    <path transform="translate(964,409)" d="m0 0 4 1 1 4-3 1 3 1-1 1h-5l-1-1v-6z" fill="#E1E4E8"/>
    <path transform="translate(981,360)" d="m0 0h5l1 3-5-1-1 2 6 2-1 5h-5l-2-3 7 1v-2l-6-2v-4z" fill="#21385A"/>
    <path transform="translate(954,357)" d="m0 0h2v3h3v2h-3v7h3v2l-5-1-1-10z" fill="#21385A"/>
    <path transform="translate(1285,332)" d="m0 0h5l1 3-5-1-1 2 6 2-1 5h-5l-2-3 7 1v-2l-6-2v-4z" fill="#21385A"/>
    <path transform="translate(1195,332)" d="m0 0h5l1 3-5-1-1 2 6 2-1 5h-5l-2-3 7 1v-2l-6-2v-4z" fill="#21385A"/>
    <path transform="translate(628,332)" d="m0 0h5l1 3-5-1-1 2 6 2-1 5h-5l-2-3 7 1v-2l-6-2v-4z" fill="#21385A"/>
    <path transform="translate(1204,329)" d="m0 0h2v3h3v2h-3v7h3v2l-5-1-1-10z" fill="#21385A"/>
    <path transform="translate(1123,329)" d="m0 0h2v3h3v2h-3v7h3v2l-5-1-1-10z" fill="#21385A"/>
    <path transform="translate(1e3 329)" d="m0 0h2v3h3v2h-3v7h3v2l-5-1-1-10z" fill="#21385A"/>
    <path transform="translate(827,329)" d="m0 0h2v3h3v2h-3v7h3v2l-5-1-1-10z" fill="#21385A"/>
    <path transform="translate(637,329)" d="m0 0h2v3h3v2h-3v7h3v2l-5-1-1-10z" fill="#21385A"/>
    <path transform="translate(1793,23)" d="m0 0 4 1 1 4-3 1 3 1-1 1h-5l-1-1v-6z" fill="#E1E4E8"/>
    <path transform="translate(1767,23)" d="m0 0 4 1 1 4-3 1 3 1-1 1h-5l-1-1v-6z" fill="#E1E4E8"/>
    <path transform="translate(1425,852)" d="m0 0h3v13h-3z"/>
    <path transform="translate(1367,852)" d="m0 0h3v13h-3z"/>
    <path transform="translate(991,852)" d="m0 0h3v13h-3z"/>
    <path transform="translate(615,852)" d="m0 0h3v13h-3z"/>
    <path transform="translate(239,852)" d="m0 0h3v13h-3z"/>
    <path transform="translate(1409,851)" d="m0 0h3v2h-2v2h2v2h-2v8h-2v-8h-2v-2h2z"/>
    <path transform="translate(1044,851)" d="m0 0h3v2h-2v2h2v2h-2v8h-2v-8h-2v-2h2z"/>
    <path transform="translate(1006,774)" d="m0 0h3v13h-3z"/>
    <path transform="translate(991,774)" d="m0 0h3v13h-3z"/>
    <path transform="translate(615,774)" d="m0 0h3v13h-3z"/>
    <path transform="translate(239,774)" d="m0 0h3v13h-3z"/>
    <path transform="translate(1217,328)" d="m0 0 3 1h-2v3h2v2h-2v9h-2v-9h-2v-2h2z" fill="#21385A"/>
    <path transform="translate(1112,328)" d="m0 0 3 1h-2v3h2v2h-2v9h-2v-9h-2v-2h2z" fill="#21385A"/>
    <path transform="translate(1023,855)" d="m0 0h6v3h-3v7h-3z"/>
    <path transform="translate(1030,777)" d="m0 0h6v3h-3v7h-3z"/>
    <path transform="translate(678,777)" d="m0 0h6v3h-3v7h-3z"/>
    <path transform="translate(905,407)" d="m0 0 5 1-1 2-3-1v2l5 2-2 4-5-1v-2h2v2l3-3-5-1z" fill="#F6F7F8"/>
    <path transform="translate(277,775)" d="m0 0h2v2h2v2h-2v6h2v2l-4-1v-7h-2v-2h2z"/>
    <path transform="translate(984,409)" d="m0 0h6l1 1v7h-1l-1-5-3-1v6h-2z" fill="#F6F7F8"/>
    <path transform="translate(971,409)" d="m0 0h6l1 1v7h-1l-1-5-3-1v6h-2z" fill="#F6F7F8"/>
    <path transform="translate(286,855)" d="m0 0h3v10h-3z"/>
    <path transform="translate(1402,777)" d="m0 0h3v10h-3z"/>
    <path transform="translate(283,777)" d="m0 0h3v10h-3z"/>
    <path transform="translate(961,363)" d="m0 0 1 2h5v1h-5l2 3 6-1-2 3-7-1-1-6z" fill="#21385A"/>
    <path transform="translate(925,363)" d="m0 0 1 2h5v1h-5l2 3 6-1-2 3-7-1-1-6z" fill="#21385A"/>
    <path transform="translate(1143,335)" d="m0 0 1 2h5v1h-5l2 3 6-1-2 3-7-1-1-6z" fill="#21385A"/>
    <path transform="translate(1081,335)" d="m0 0 1 2h5v1h-5l2 3 6-1-2 3-7-1-1-6z" fill="#21385A"/>
    <path transform="translate(1023,335)" d="m0 0 1 2h5v1h-5l2 3 6-1-2 3-7-1-1-6z" fill="#21385A"/>
    <path transform="translate(847,335)" d="m0 0 1 2h5v1h-5l2 3 6-1-2 3-7-1-1-6z" fill="#21385A"/>
    <path transform="translate(644,335)" d="m0 0 1 2h5v1h-5l2 3 6-1-2 3-7-1-1-6z" fill="#21385A"/>
    <path transform="translate(912,407)" d="m0 0h2v2h2v2h-2v5l2 1-4-1v-5l-2-1z" fill="#F6F7F8"/>
    <path transform="translate(957,407)" d="m0 0h2v2h2v2h-2v5l2 1-4-1-1-7z" fill="#F6F7F8"/>
    <path transform="translate(1786,21)" d="m0 0h2v2h2v2h-2v5l2 1-4-1-1-7z" fill="#F6F7F8"/>
    <path transform="translate(1714,23)" d="m0 0 5 2 3-2v3l-3 3-4-2-2-3z" fill="#080F18"/>
</svg>
